<svg width="17" height="22" viewBox="0 0 17 22" fill="none" xmlns="http://www.w3.org/2000/svg">
<path d="M2.5 8C2.5 4.68629 5.1863 2 8.5 2C11.8137 2 14.5 4.68629 14.5 8V16H2.5V8ZM0.5 16.6667L0.1 17.2C-0.0656996 17.4209 -0.0208992 17.7343 0.200001 17.9C0.286501 17.9649 0.3918 18 0.5 18H16.5C16.7761 18 17 17.7761 17 17.5C17 17.3918 16.9649 17.2865 16.9 17.2L16.5 16.6667V8C16.5 3.58172 12.9183 0 8.5 0C4.0817 0 0.5 3.58172 0.5 8V16.6667ZM11 19H6C6 20.3807 7.1193 21.5 8.5 21.5C9.8807 21.5 11 20.3807 11 19Z" fill="white"/>
</svg>
